<svg xmlns="http://www.w3.org/2000/svg" width="1400" height="980"><path fill="#070028" d="M1400 0h-312.717c-53.146 58.853-107.895 145.876-55.635 245.228 66.711 126.827 84.711 198.827 2.195 378.746-39.347 85.794 198.749 283.354 366.157 244.081V0z"/><radialGradient id="prefix__a" cx="642.798" cy="124.164" r="775.134" gradientUnits="userSpaceOnUse"><stop offset=".346" stop-color="#26184d"/><stop offset=".645" stop-color="#26174d"/><stop offset=".769" stop-color="#24154a"/><stop offset=".861" stop-color="#201045"/><stop offset=".935" stop-color="#1a083d"/><stop offset="1" stop-color="#120033"/></radialGradient><path fill="url(#prefix__a)" d="M847.443 659.637C566.957 742.713 452.962 832.128 371.966 980H1400V0h-107.592c-4.982 269.909-176.732 580.189-444.965 659.637z"/><radialGradient id="prefix__b" cx="467.116" cy="577.889" r="705.761" gradientTransform="matrix(.9886 -.1503 .0984 .6476 -51.583 273.825)" gradientUnits="userSpaceOnUse"><stop offset=".428" stop-color="#fffcdd"/><stop offset=".481" stop-color="#fff2d1"/><stop offset=".57" stop-color="#ffddb6"/><stop offset=".684" stop-color="#fbbb8e"/><stop offset=".819" stop-color="#f68f5f"/><stop offset=".97" stop-color="#f0542a"/><stop offset="1" stop-color="#ef4423"/></radialGradient><path opacity=".1" fill="url(#prefix__b)" d="M571.125 576.914c-48.75 105.848-170.002 47.787-237.986 91.297C172.849 770.797 117.731 923.314 103.381 980h1192.537c-33.684-79.477-133.821-274.05-328.831-382.569-152.861-85.065-338.149-146.038-395.962-20.517z"/><path fill="#070028" d="M1400 267.947c-57.326 19.629-108.004 63.785-131.252 149.146-61.248 224.883-253.603 299.365-326.766 308.617-73.16 9.252-98.867 82.575-106.973 122.842-11.982 59.52-15.197 101.931-14.725 131.448H1400V267.947z"/><path fill="#19053B" d="M0 558.76c73.987-81.036 235.4-201.975 529.458-220.106C811.176 321.281 894.717 150.113 881.186 0H0v558.76z"/><radialGradient id="prefix__c" cx="722.949" cy="703.135" r="836.314" gradientUnits="userSpaceOnUse"><stop offset="0" stop-color="#fffcdd"/><stop offset=".167" stop-color="#cdc6be"/><stop offset=".54" stop-color="#766b84"/><stop offset="1" stop-color="#26184d"/></radialGradient><path opacity=".4" fill="url(#prefix__c)" d="M0 471.689v-5.001c35.907-48.879 73.806-88.445 113.189-118.072 74.888-56.335 153.158-74.641 232.639-54.408 176.09 44.225 285.501 9.948 344.319-107.869 5.42-10.855 10.931-22.203 16.766-34.218C729.123 106.388 754.881 53.355 789.264 0h3.752c-35.137 54.047-61.16 107.627-83.404 153.432-5.838 12.022-11.352 23.377-16.778 34.247-42.965 86.06-112.461 128.132-214.555 128.137-39.421.002-83.687-6.268-133.185-18.699C198.11 259.7 81.139 359.728 0 471.689zm350.413-138.112c95.567 20.939 171.236 22.988 231.33 6.262 65.887-18.338 116.295-59.649 154.105-126.292 5.123-9.028 10.205-18.104 15.588-27.714C784.754 126.338 821.297 61.095 870.959 0h-3.494c-49.646 61.182-85.875 125.85-118.646 184.367-5.381 9.605-10.461 18.678-15.58 27.699-71.564 126.136-185.862 161.597-382.179 118.581-44.234-9.859-87.462-10.055-128.485-.58-36.586 8.449-72.445 24.839-106.579 48.713C76.327 406.525 38.058 444.88 0 495.145v4.712c75.671-101.61 187.599-202.567 350.413-166.28zm2.658 18.231c100.882 20.619 177.022 22.35 239.618 5.449 69.441-18.751 123.305-61.53 164.668-130.783 4.068-6.81 8.162-13.707 12.299-20.675C808.98 139.555 852.549 66.17 913.873 0h-4.279c-60.262 65.724-103.65 138.792-142.518 204.267a8977.449 8977.449 0 01-12.295 20.669c-77.852 130.344-194.063 166.25-401.104 123.933-45.384-9.45-89.193-9.78-130.208-.98-36.71 7.876-72.396 23.343-106.066 45.973C70.164 425.609 30.813 468.918 0 508.974v4.951c78.347-102.947 187.755-196.541 353.071-162.117zm2.656 18.228c104.985 19.994 183.757 21.465 247.896 4.629 73.022-19.168 130.347-63.414 175.246-135.266l6.697-10.729C833.637 151.636 884.814 69.626 958.48 0h-4.186c-72.91 69.484-122.891 149.547-171.273 227.083l-6.697 10.727c-83.005 132.835-204.7 170.291-420.03 129.281-89.188-17.324-166.87-3.635-237.485 41.852C71.364 439.504 31.994 481.854 0 522.752v4.89c82.833-107.097 186.914-190.397 355.727-157.606zm2.657 18.229c54.403 9.641 105.328 15.69 152.77 15.689 118.502-.004 215.163-37.766 289.227-151.633C856.537 165.983 916.725 73.457 1007.668 0h-5.307a613.25 613.25 0 00-13.27 11.192c-81.661 71.045-139.87 160.537-191.226 239.493-102.816 158.071-249.838 168.139-438.952 134.627-91.427-16.54-169.505-3.879-238.696 38.712C72.525 453.38 33.234 494.673 0 536.379v4.754c77.336-98.243 179.236-185.279 358.384-152.868zm-15.952-109.379c84.41 22.673 151.917 25.5 206.382 8.642 27.342-8.464 51.474-22.194 71.725-40.811 20.314-18.675 37.401-42.892 50.788-71.979 4.911-10.67 9.964-22.015 15.313-34.026C705.439 98.505 727.123 49.832 755.84 0h-3.346c-28.49 49.464-49.908 97.538-68.594 139.491-5.346 12.002-10.396 23.339-15.299 33.993-52.341 113.729-158.777 147.26-325.387 102.505-77.424-21.034-155.29-1.675-231.426 57.545C67.414 368.049 29.892 411.203 0 452.368v5.297c70.321-97.695 192.008-219.648 342.432-178.779zM0 398.991c32.622-47.113 70.237-90.354 108.167-123.533 55.061-48.165 138.549-99.32 223.608-69.507 40.072 14.046 76.771 21.379 109.079 21.797 30.668.389 57.466-5.419 79.646-17.286 32.107-17.178 54.52-47.46 64.811-87.573l1.852-7.236C594.845 85.584 605.116 45.385 620.953 0h-3.109c-15.775 45.195-25.968 85.085-33.587 114.91l-1.851 7.233c-10.221 39.838-31.525 68.663-63.32 85.673-44.778 23.957-109.205 22.333-186.317-4.696-36.428-12.77-75.603-12.027-116.439 2.208-35.902 12.514-72.958 35.35-110.137 67.873C69.037 305.702 32.19 347.812 0 393.756v5.235zm1400-217.182a475.99 475.99 0 00-42.311 9.646c-53.926 14.935-104.125 39.241-153.467 74.308-49.088 34.885-97.473 80.532-147.924 139.55-193.82 226.735-403.896 214.251-647.144 199.793-6.232-.37-12.49-.742-18.774-1.111-121.018-7.12-198.44-10.604-253.102 1.006C85.78 615.938 51.281 640.183 0 686.565v4.053c51.987-47.2 86.405-71.746 137.902-82.684 54.293-11.53 131.538-8.05 252.302-.946 6.283.37 12.541.742 18.772 1.112 122.058 7.253 237.347 14.105 344.449-9.441 118.914-26.145 215.879-86.963 305.154-191.397C1168.385 278.81 1271.615 207.803 1400 184.838v-3.029zM110.901 305.679c77.748-64.321 153.851-85.606 226.206-63.259 150.785 46.281 251.486 13.92 291.212-93.586 3.03-8.201 6.209-17.067 9.575-26.454C650.255 87.898 665.433 45.572 686.345 0h-3.394c-20.374 44.672-35.338 86.379-47.882 121.366-3.363 9.38-6.54 18.24-9.565 26.427-19.134 51.781-52.685 86.089-99.72 101.969-48.827 16.487-112.011 13.05-187.795-10.21-38.625-11.93-78.958-11.454-119.876 1.414-36.07 11.343-72.785 32.338-109.125 62.402C71.19 334.639 33.534 376.321 0 423.359v5.173c33.988-48.231 72.377-90.981 110.901-122.853zm-1.366-15.11c77.812-66.241 155.584-89.195 224.908-66.383 83.147 27.272 150.19 28.345 199.261 3.186 34.979-17.933 59.577-48.72 73.112-91.505a3463.33 3463.33 0 005.803-18.596C622.503 85.407 635.107 44.782 653.203 0h-3.299c-17.754 44.187-30.225 84.387-40.15 116.382a3420.301 3420.301 0 01-5.799 18.58c-13.283 41.993-37.38 72.186-71.619 89.74-48.333 24.781-114.599 23.648-196.957-3.366-37.524-12.349-77.278-11.739-118.157 1.811-35.984 11.927-72.87 33.842-109.631 65.137-32.07 27.301-63.346 61.049-92.958 100.307A774.002 774.002 0 000 408.657v5.297c33.372-47.744 71.578-91.073 109.535-123.385zm2.731 30.221c76.558-61.462 153.101-81.693 227.504-60.137 79.77 22.909 146.395 26.077 198.024 9.417 51.26-16.541 88.952-52.972 112.027-108.281 4.082-9.786 8.332-20.324 12.831-31.482C677.941 92.395 696.109 47.342 720.521 0h-3.385c-24.097 46.932-42.096 91.562-57.266 129.186-4.496 11.149-8.742 21.68-12.817 31.449-45.771 109.708-148.876 142.388-306.452 97.136-39.734-11.513-80.644-11.17-121.597 1.016-36.162 10.761-72.706 30.834-108.617 59.665C65.735 354.3 28.532 398.228 0 437.953v5.158c28.707-40.424 66.574-85.638 112.266-122.321zm235.487-5.443c91.745 21.531 164.699 23.842 223.031 7.066 62.357-17.934 109.315-57.774 143.555-121.798 5.533-10.346 11.086-20.947 16.967-32.17C758.557 116.43 789.447 57.469 831.141 0h-3.729c-41.129 57.045-71.732 115.455-98.764 167.053-5.877 11.217-11.428 21.812-16.955 32.147-65.22 121.956-177.25 156.877-363.25 113.228-81.551-19.435-160.231-2.186-233.851 51.271C75.358 392.188 36.977 431.523 0 481.062v5.04c105.787-143.169 222.546-200.595 347.753-170.755zm26.552 182.284c124.25 13.684 218.724 18.235 305.677-1.322 99.948-22.481 179.223-75.388 249.487-166.498C1056.885 164.59 1181.355 60.158 1400 40.375V37.26c-86.334 7.676-160.117 28.709-226.574 64.106-45.096 24.02-87.473 54.982-129.547 94.658-37.572 35.429-74.682 77.358-116.785 131.954C777.279 522.24 596.023 519.03 374.636 494.649c-109.413-12.299-185.26-6.174-245.93 19.856C77.245 536.585 38.671 572.472 0 614.538v4.418c86.597-94.91 156.896-145.759 374.305-121.325zm5.302 36.453c118.591 10.859 224.686 18.124 322.159-3.069 107.463-23.368 193.492-79.098 270.738-175.385C1105.244 190.17 1229.516 109.843 1400 91.766v-2.803c-60.912 6.425-115.232 20.479-165.148 42.438-92.24 40.576-173.873 109.152-264.688 222.352-160.898 200.56-338.183 200.432-590.281 177.344-117.359-10.934-191.625-6.872-248.33 13.57C78.924 563.64 41.002 597.128 0 639.205v4.329c95.543-98.041 156.592-130.223 379.607-109.45zm-2.651-18.228c110.078 11.081 216.916 19.249 313.918-2.192 103.702-22.924 186.352-77.242 260.112-170.942C1073.678 186.858 1194.381 86.986 1400 66.812v-3.214c-73.434 7.07-137.545 24.491-195.861 52.787-88.18 42.787-166.982 112.02-255.51 224.481C793.23 538.278 613.789 536.682 377.26 512.872c-112.473-11.534-188.691-6.381-247.131 16.714C78.271 550.081 39.362 585.399 0 626.963v4.354c86.921-92.436 152.676-138.464 376.956-115.461zm7.951 54.681c119.801 8.929 232.961 17.363 338.501-4.942 114.916-24.287 207.742-82.801 292.135-184.148 120.189-145.29 235.021-221.014 384.457-241.351v-3.455c-36.672 4.875-71.023 13.04-103.859 24.679-51.076 18.105-98.674 44.627-145.51 81.083-45.27 35.235-90.213 80.092-137.396 137.129C829.123 600.636 623.37 585.301 385.131 567.545c-130.312-9.815-198.262-7.841-250.72 7.286C84.314 589.278 49.844 615.256 0 663.216v4.167c99.298-95.881 148.063-114.692 384.907-96.846zm2.649 18.226l6.882.458c121.844 8.115 236.932 15.781 342.866-6.854 117.41-25.086 212.658-84.827 299.756-188.013 115.944-137.803 224.178-211.061 362.94-232.208v-2.73c-25.4 3.933-49.645 9.589-73.084 16.971-52.508 16.535-101.406 41.949-149.488 77.695-47.193 35.084-93.857 80.336-142.662 138.34C845.813 616.277 646.71 603.014 394.638 586.228l-6.882-.459c-120.512-8.064-196.352-9.794-251.912 4.146C85.101 602.646 50.592 627.774 0 674.97v4.099c99.525-93.346 137.593-107.035 387.556-90.306zm-23.863-164.041c121.254 18.512 202.804 19.146 272.685 2.115 41.422-10.094 77.803-26.395 111.221-49.833 35.488-24.892 66.826-57.224 95.807-98.847 78-112.031 157.057-212.744 277.617-278.157h-6.717c-22.014 12.218-43.186 25.917-63.758 41.268-88.092 65.735-151.85 152.223-209.605 235.175-114.804 164.891-261.757 178.144-476.792 145.314-50.868-7.939-95.716-8.783-137.111-2.579-37.83 5.668-71.849 17.119-104.001 35.007C76.521 480.063 38.619 516.761 0 563.179v4.633c81.962-99.538 174.382-172.634 363.693-143.09zm2.655 18.226c88.879 12.559 191.761 22.528 280.937 1.266 43.155-10.29 81.151-26.963 116.155-50.971 37.381-25.639 70.576-59.059 101.48-102.171C953.082 168.09 1042.799 59.32 1192.889 0h-7.75c-36.758 15.103-71.053 33.692-103.867 56.298-84.838 58.443-148.82 135.423-218.789 233.026C742.334 456.928 589.74 471.481 366.772 439.979c-99.871-14.423-176.87-5.118-242.319 29.286C74.326 495.613 34.994 534.99 0 576.201v4.71c83.065-98.227 171.849-166.057 366.348-137.963zm-5.309-36.455c115.104 18.95 196.655 19.863 264.428 2.96 39.694-9.9 74.461-25.829 106.286-48.696 33.602-24.145 63.088-55.389 90.141-95.517C893.258 159.382 962.441 66.636 1059.854 0h-4.912a586.427 586.427 0 00-35.119 26.232C938.016 92.211 878.34 176.144 819.404 263.563 710.586 424.976 563.53 436.79 361.531 403.534c-93.72-15.766-172.192-4.129-239.905 35.569C73.654 467.229 34.558 507.338 0 549.842v4.764c78.692-97.558 177.394-179.002 361.039-148.113zm10.614 72.91c116.363 13.969 211.474 19.238 297.433-.455 46.63-10.682 87.851-28.1 126.021-53.248 41.178-27.131 78.09-62.719 112.844-108.801C1040.09 141.699 1168.145 32.505 1400 12.974V9.929c-36.168 3.021-70.145 8.232-102.484 15.73-56.553 13.112-107.191 32.963-154.807 60.688-80.771 47.031-151.697 115.441-237.152 228.746C761.16 506.546 585.996 502.112 372.015 476.425 165.448 451.095 86.508 505.451 0 601.979v4.504c86.764-97.356 164.767-152.449 371.653-127.08zM369 461.177c96.964 12.646 199.111 21.448 289.188.406 44.89-10.485 84.5-27.53 121.087-52.108 39.277-26.384 74.33-60.89 107.16-105.487C985.598 169.282 1093.563 45.447 1296.9 0h-15.166c-5.848 1.427-11.658 2.905-17.4 4.479-55.627 15.242-105.459 37.107-152.342 66.846-95.639 60.662-166.088 146.817-227.973 230.884-138.578 188.25-315.055 182.021-514.627 155.994-102.431-13.654-179.812-5.347-243.525 26.143C75.244 509.364 36.397 547.318 0 589.149v4.616c86.039-99.328 168.061-159.373 369-132.588zm622.697-94.535c-178.313 218.39-377.989 201.84-609.19 182.679-122.691-10.313-194.985-7.293-249.526 10.429C83.792 575.731 48.154 603.593 0 651.318v4.198c92.499-92.521 144.04-123.231 382.257-103.206 127.419 10.562 232.654 16.975 330.397-3.948 111.234-23.812 200.641-80.951 281.367-179.822C1120.6 213.512 1240.287 135.475 1400 116.34v-3.104c-48.379 5.677-92.613 16.597-134.436 33.18-96.187 38.14-180.652 106.061-273.867 220.226z"/><path fill="#EF4358" d="M378.323 690.618C186.25 623.351 81.359 642.055 0 724.055V980h1400V664.137c-278.07 265.691-645.801 158.119-1021.677 26.481z"/><path fill="#070028" d="M0 0v357.851c38.838-57.367 136.577-177.468 269.449-209.424C363.932 125.703 429.359 83.055 471.359 0H0z"/><radialGradient id="prefix__d" cx="953.938" cy="315.049" r="597.393" gradientTransform="matrix(1 0 0 .6258 0 117.876)" gradientUnits="userSpaceOnUse"><stop offset="0" stop-color="#fffcdd"/><stop offset=".06" stop-color="#cdc6be"/><stop offset=".152" stop-color="#9a909d"/><stop offset=".25" stop-color="#756983"/><stop offset=".351" stop-color="#5a4f70"/><stop offset=".457" stop-color="#463b62"/><stop offset=".568" stop-color="#382b59"/><stop offset=".688" stop-color="#2e2152"/><stop offset=".822" stop-color="#281a4e"/><stop offset="1" stop-color="#26184d"/></radialGradient><path opacity=".4" fill="url(#prefix__d)" d="M907.902 189.995c157.029 4.665 302.457 82.06 326.457 194.06 13.568 63.313 76.5 72.5 165.641 60.219V0H689.713c37.535 113.025 91.965 186.245 218.189 189.995z"/><path opacity=".4" fill="#FFFCDD" d="M679.359 774.555C354.847 445.573 113.34 496.789 0 535.048V978.5h1033.843c-62.484-108.945-220.331-67.945-354.484-203.945z"/><path opacity=".4" fill="#FFFCDD" d="M269.13 780.197C149.368 729.529 78.191 724.584 0 800.589V978.5h515.197c-18.981-50.928-101.473-137.128-246.067-198.303z"/><path opacity=".2" fill="#FFFCDD" d="M993.43 852.18c-30.664 14.25-60.402 33.33-88.387 56.712-34.701 28.991-58.127 57.564-68.4 71.108h3.773c10.811-14.043 33.559-41.255 66.623-68.867 43.633-36.44 114.656-81.025 205.209-86.487 43.236-2.607 83.998-9.809 121.158-21.403 35.908-11.205 69.605-26.875 100.158-46.575 23.756-15.318 45.838-33.063 66.436-53.431v-4.491c-75.197 75.368-170.311 115.813-287.932 122.906-40.369 2.434-80.285 12.705-118.638 30.528zm108.875-39.65c-39.357 2.886-78.576 13.871-116.564 32.651-30.367 15.013-60.02 35.012-88.135 59.441-35.904 31.198-60.178 61.845-70.176 75.377h3.738c10.627-14.188 34.219-43.418 68.471-73.169 43.846-38.084 114.635-84.839 202.885-91.309 120.955-8.866 220.568-57.693 297.477-145.525v-4.603c-76.71 88.871-176.403 138.247-297.696 147.137zm-101.184 46.648c-30.961 13.486-60.785 31.648-88.641 53.981C879.002 940 856.396 966.557 845.895 980h3.816c10.953-13.803 32.881-39.046 64.727-64.564 43.424-34.798 114.68-77.214 207.537-81.666 86.857-4.164 159.17-23.554 221.074-59.276 20.012-11.55 38.949-24.86 56.951-40.041v-4.34c-73.697 62.719-164.426 95.207-278.17 100.661-41.379 1.984-81.992 11.54-120.709 28.404zm23.074 21c-31.852 11.193-61.926 26.597-89.393 45.782-29.689 20.739-49.916 41.524-60.805 54.04h3.984c11.098-12.501 30.561-32.037 58.539-51.58 42.813-29.906 114.805-65.855 214.635-67.282 88.139-1.259 160.191-12.107 220.277-33.166a448.495 448.495 0 0028.566-11.117v-3.481c-58.488 25.333-134.213 43.127-248.887 44.765-44.41.633-87.111 8.049-126.916 22.039zm-15.382-14.001c-31.258 12.723-61.166 29.965-88.893 51.25-32.234 24.745-54.045 49.339-64.725 62.573h3.865c11.053-13.466 32.178-36.787 62.775-60.262 43.215-33.156 114.705-73.401 209.865-76.846 87.555-3.168 159.785-19.711 220.82-50.573a387.023 387.023 0 0047.479-28.406v-3.438c-60.104 42.396-143.082 74.885-268.408 79.42-42.39 1.534-83.698 10.376-122.778 26.282zm7.689 7c-31.553 11.958-61.545 28.281-89.141 48.517-30.975 22.712-51.996 45.384-62.803 58.307h3.92c11.088-13.019 31.367-34.41 60.656-55.887 43.021-31.546 114.773-69.662 212.293-72.098 88.039-2.199 160.184-15.895 220.557-41.869A398.297 398.297 0 001400 791.326v-3.382c-62.801 35.808-141.912 58.157-258.646 61.072-43.403 1.085-85.409 9.213-124.852 24.161zm76.039-69.767c-38.346 3.336-76.867 15.036-114.49 34.775-30.07 15.775-59.637 36.692-87.881 62.17-37.135 33.497-62.268 66.27-71.91 79.645h3.707c10.381-14.212 34.822-45.503 70.271-77.471 44.057-39.728 114.613-88.653 200.563-96.131 82.982-7.219 157.6-35.944 221.773-85.378 31.236-24.063 59.766-52.858 85.426-86.143v-4.794c-78.152 103.141-182.654 162.47-307.459 173.327zm-9.766-9.12c-37.334 3.787-75.154 16.202-112.414 36.899-29.77 16.538-59.252 38.372-87.625 64.896-38.379 35.878-64.406 70.851-73.617 83.914h3.678c10.074-14.113 35.395-47.522 72.043-81.772 44.266-41.371 114.592-92.468 198.238-100.953 82.002-8.318 156.689-39.97 221.992-94.075 35.299-29.248 67.018-64.387 94.93-105.096v-5.269c-79.473 118.089-189.033 188.452-317.225 201.456zm-39.074-36.477c-33.277 5.594-68.299 20.868-104.09 45.397-28.576 19.586-57.713 45.087-86.602 75.796-44.07 46.848-74.217 91.824-80.215 100.994h3.592c7.912-11.95 37.084-54.586 78.807-98.938 45.125-47.967 114.543-107.773 189.006-120.29 75.785-12.739 154.912-58.494 222.807-128.835 52.26-54.144 97.289-121.951 132.994-199.662v-6.823c-96.566 215.241-246.406 313.889-356.299 332.361zm211.576-145.723c-68.539 74.187-147.15 122.701-221.348 136.605-32.262 6.047-66.58 22.035-102.004 47.521-28.277 20.347-57.328 46.764-86.346 78.519-46.078 50.425-77.555 98.63-81.82 105.265h3.576c6.98-10.71 37.297-56.013 80.492-103.277 45.328-49.597 114.504-111.557 186.654-125.078 74.828-14.023 154.023-62.861 223-137.52 57.012-61.709 105.357-139.206 142.518-227.79v-7.862c-37.378 91.052-86.513 170.614-144.722 233.617zm-201.804 154.842c-34.293 5.142-70.016 19.701-106.174 43.272-28.875 18.824-58.1 43.409-86.859 73.072-42.451 43.786-71.447 85.985-78.594 96.724h3.611c8.648-12.846 36.803-53.041 77.178-94.677 44.902-46.305 114.537-103.918 191.283-115.425 77.869-11.676 154.846-53.223 222.609-120.148 47.678-47.091 89.41-105.886 123.473-173.413v-6.176c-94.881 192.585-235.473 280.119-346.527 296.771zm9.767 9.118c-35.307 4.69-71.729 18.535-108.256 41.148-29.174 18.063-58.482 41.731-87.113 70.349-41.004 40.984-68.951 80.638-76.955 92.453h3.629c9.227-13.457 36.391-51.303 75.49-90.376 44.691-44.659 114.555-100.1 193.6-110.6 78.865-10.477 155.773-49.019 222.41-111.461 34.695-32.511 66.354-71.269 94.096-115.197A690.167 690.167 0 001400 518.805v-6.22c-81.547 149.648-202.092 245.576-336.76 263.465zm9.77 9.119c-36.32 4.239-73.443 17.369-110.336 39.024-29.473 17.301-58.869 40.053-87.371 67.624-39.664 38.368-66.625 75.627-75.297 88.183h3.652c9.695-13.871 35.92-49.46 73.779-86.074 44.479-43.015 114.574-96.283 195.92-105.776 79.857-9.319 156.693-44.855 222.201-102.769 33.643-29.741 64.455-65.406 91.582-106.005a631.377 631.377 0 0012.859-20.098v-5.613c-80.616 133.623-195.517 216.163-326.989 231.504z"/><path fill="#EF4358" d="M794.07 0c-5.211 99.055 89.424 134.752 149.789 118.055 70.498-19.5 137.08-44.493 218.764-13.523 89.736 34.023 182.152-14.79 202.391-104.532H794.07z"/><radialGradient id="prefix__e" cx="346.354" cy="304.155" r="464.507" gradientUnits="userSpaceOnUse"><stop offset="0" stop-color="#fffcdd"/><stop offset=".06" stop-color="#cdc6be"/><stop offset=".152" stop-color="#9a909d"/><stop offset=".25" stop-color="#756983"/><stop offset=".351" stop-color="#5a4f70"/><stop offset=".457" stop-color="#463b62"/><stop offset=".568" stop-color="#382b59"/><stop offset=".688" stop-color="#2e2152"/><stop offset=".822" stop-color="#281a4e"/><stop offset="1" stop-color="#26184d"/></radialGradient><path opacity=".4" fill="url(#prefix__e)" d="M0 0v455.214c98.785-61.699 232.694-150.35 266.971-274.438C289.625 98.771 296.359 34.055 371.966 0H0z"/><path fill="#EF4358" d="M0 0v279.38c83.692-49.659 51.692-155.801 174.383-183.321C235.75 82.294 267.195 39.475 279.446 0H0z"/><path opacity=".4" fill="#FFFCDD" d="M1227.359 182.387c47.484 35.097 123.334 54 172.641 27.192V0h-257.938c-.847 61.075 13.542 129.35 85.297 182.387z"/></svg>